<?xml version="1.0" encoding="utf-8"?>
<!-- Generator: Adobe Illustrator 22.0.0, SVG Export Plug-In . SVG Version: 6.00 Build 0)  -->
<svg version="1.1" id="Capa_1" xmlns="http://www.w3.org/2000/svg" xmlns:xlink="http://www.w3.org/1999/xlink" x="0px" y="0px"
	 viewBox="0 0 1000 1000" style="enable-background:new 0 0 1000 1000;" xml:space="preserve">
<style type="text/css">
	.st0{fill:#FEDF82;}
</style>
<path class="st0" d="M291.4,302.1c9.5-1.2,16.7,3.5,23.2,10c60.7,60.7,121.3,121.4,182,182c4.9,4.9,4.9,4.9,10-0.1
	c59.6-59.6,119.2-119.2,178.8-178.9c5.5-5.5,11.7-9.5,19.5-11.3c13.8-3.1,30.6,6.2,35.2,21.2c4.2,13.5,0,24.3-9.6,33.9
	C676.7,412.8,622.8,466.7,569,520.5c-14.4,14.4-29,28.6-43,43.2c-6.2,6.4-13.7,10.7-21.9,11.7c-8.7,1-17-3.1-23.6-9.4
	c-27.1-25.7-53-52.5-79.4-78.9c-42.3-42.1-84.3-84.4-126.6-126.5c-6.5-6.4-12.1-13.4-14.8-22.1c-2.4-7.8,0.5-15.2,4.4-21.7
	C270,306.9,278.8,300.9,291.4,302.1"/>
<path class="st0" d="M291.5,463.1c9.5-1.2,16.7,3.5,23.2,10c60.6,60.7,121.3,121.4,182,182c4.9,4.9,4.9,4.9,10-0.1
	c59.6-59.6,119.3-119.2,178.8-178.9c5.5-5.5,11.7-9.5,19.6-11.2c13.6-3,30.2,5.9,35,20.8c4.4,13.7,0.3,24.6-9.5,34.4
	C676.6,573.8,622.8,627.7,569,681.5c-14.5,14.5-29.2,28.8-43.4,43.6c-6.1,6.3-13.6,10.4-21.5,11.3c-8.7,1-17-3.1-23.6-9.4
	c-27.1-25.7-53-52.5-79.4-78.9c-42.3-42.1-84.3-84.4-126.6-126.5c-6.5-6.4-12.1-13.4-14.8-22.1c-2.4-7.7,0.5-15.2,4.4-21.7
	C270.1,467.9,278.9,461.9,291.5,463.1"/>
</svg>
