<?xml version="1.0" encoding="UTF-8" standalone="no"?>
<!-- Generator: Adobe Illustrator 22.0.0, SVG Export Plug-In . SVG Version: 6.00 Build 0)  -->

<svg
   xmlns:dc="http://purl.org/dc/elements/1.1/"
   xmlns:cc="http://creativecommons.org/ns#"
   xmlns:rdf="http://www.w3.org/1999/02/22-rdf-syntax-ns#"
   xmlns:svg="http://www.w3.org/2000/svg"
   xmlns="http://www.w3.org/2000/svg"
   xmlns:sodipodi="http://sodipodi.sourceforge.net/DTD/sodipodi-0.dtd"
   xmlns:inkscape="http://www.inkscape.org/namespaces/inkscape"
   version="1.1"
   id="Capa_1"
   x="0px"
   y="0px"
   viewBox="0 0 1000 1000"
   style="enable-background:new 0 0 1000 1000;"
   xml:space="preserve"
   sodipodi:docname="arrowWhite.svg"
   inkscape:version="0.92.4 (5da689c313, 2019-01-14)"><metadata
   id="metadata128"><rdf:RDF><cc:Work
       rdf:about=""><dc:format>image/svg+xml</dc:format><dc:type
         rdf:resource="http://purl.org/dc/dcmitype/StillImage" /><dc:title></dc:title></cc:Work></rdf:RDF></metadata><defs
   id="defs126" /><sodipodi:namedview
   pagecolor="#ffffff"
   bordercolor="#666666"
   borderopacity="1"
   objecttolerance="10"
   gridtolerance="10"
   guidetolerance="10"
   inkscape:pageopacity="0"
   inkscape:pageshadow="2"
   inkscape:window-width="1920"
   inkscape:window-height="1001"
   id="namedview124"
   showgrid="false"
   inkscape:zoom="0.236"
   inkscape:cx="500"
   inkscape:cy="500"
   inkscape:window-x="-9"
   inkscape:window-y="-9"
   inkscape:window-maximized="1"
   inkscape:current-layer="Capa_1" />
<style
   type="text/css"
   id="style117">
	.st0{fill:#FEDF82;}
</style>
<path
   class="st0"
   d="M291.4,302.1c9.5-1.2,16.7,3.5,23.2,10c60.7,60.7,121.3,121.4,182,182c4.9,4.9,4.9,4.9,10-0.1  c59.6-59.6,119.2-119.2,178.8-178.9c5.5-5.5,11.7-9.5,19.5-11.3c13.8-3.1,30.6,6.2,35.2,21.2c4.2,13.5,0,24.3-9.6,33.9  C676.7,412.8,622.8,466.7,569,520.5c-14.4,14.4-29,28.6-43,43.2c-6.2,6.4-13.7,10.7-21.9,11.7c-8.7,1-17-3.1-23.6-9.4  c-27.1-25.7-53-52.5-79.4-78.9c-42.3-42.1-84.3-84.4-126.6-126.5c-6.5-6.4-12.1-13.4-14.8-22.1c-2.4-7.8,0.5-15.2,4.4-21.7  C270,306.9,278.8,300.9,291.4,302.1"
   id="path119"
   style="fill:#ffffff" />
<path
   class="st0"
   d="M291.5,463.1c9.5-1.2,16.7,3.5,23.2,10c60.6,60.7,121.3,121.4,182,182c4.9,4.9,4.9,4.9,10-0.1  c59.6-59.6,119.3-119.2,178.8-178.9c5.5-5.5,11.7-9.5,19.6-11.2c13.6-3,30.2,5.9,35,20.8c4.4,13.7,0.3,24.6-9.5,34.4  C676.6,573.8,622.8,627.7,569,681.5c-14.5,14.5-29.2,28.8-43.4,43.6c-6.1,6.3-13.6,10.4-21.5,11.3c-8.7,1-17-3.1-23.6-9.4  c-27.1-25.7-53-52.5-79.4-78.9c-42.3-42.1-84.3-84.4-126.6-126.5c-6.5-6.4-12.1-13.4-14.8-22.1c-2.4-7.7,0.5-15.2,4.4-21.7  C270.1,467.9,278.9,461.9,291.5,463.1"
   id="path121"
   style="fill:#ffffff" />
</svg>