<?xml version="1.0" encoding="utf-8"?>
<!-- Generator: Adobe Illustrator 22.0.0, SVG Export Plug-In . SVG Version: 6.00 Build 0)  -->
<svg version="1.1" id="Capa_1" xmlns="http://www.w3.org/2000/svg" xmlns:xlink="http://www.w3.org/1999/xlink" x="0px" y="0px"
	 viewBox="0 0 1000 1000" style="enable-background:new 0 0 1000 1000;" xml:space="preserve">
<style type="text/css">
	.st0{fill:#76FF03;}
</style>
<path class="st0" d="M325.2,315.8c-38.6,0-77.3,0.1-115.9,0.1c-0.5,0-1-0.2-1.8-0.3v-117H325c0,39,0,78.2,0,117.4
	C325,315.9,325.2,315.8,325.2,315.8"/>
<path class="st0" d="M677.2,316.2c0-38.6-0.1-77.3-0.1-115.9c0-0.5,0.2-1,0.3-1.8h117V316c-39,0-78.2,0-117.4,0
	C677.1,316,677.2,316.2,677.2,316.2"/>
<path class="st0" d="M441.9,433.1c39.4,0,78.8,0,118.1,0l-0.2-0.2v117.6H442.1V432.9L441.9,433.1z"/>
<polygon class="st0" points="325.1,609.9 207.4,609.9 207.4,492.5 324.9,492.5 324.9,610.1 "/>
<path class="st0" d="M677.3,610.2c0-38.7-0.1-77.3-0.1-115.9c0-0.5,0.2-0.9,0.4-1.8h117.1V610c-39,0-78.3,0-117.5,0
	C677.1,610,677.3,610.2,677.3,610.2"/>
<path class="st0" d="M559.9,726.9v117.7H442c0-39.1,0-78.3,0-117.6c0,0-0.2,0.2-0.2,0.2c39.4,0,78.8-0.1,118.3-0.1L559.9,726.9z"/>
<path class="st0" d="M442.1,432.9H325.5c-0.2-1.2-0.4-2.3-0.5-3.3c0-37.3,0-74.6,0-111.9c0-0.7,0.1-1.3,0.2-2c0,0-0.2,0.2-0.2,0.2
	c38.8,0,77.6,0,116.9,0v117.2L442.1,432.9"/>
<path class="st0" d="M560.1,433.1V316.5c1.2-0.2,2.2-0.4,3.3-0.5c37.3,0,74.6,0,111.9,0c0.7,0,1.3,0.1,2,0.2c0,0-0.2-0.2-0.2-0.2
	c0,38.8,0,77.6,0,116.9c-39.3,0-78.3,0-117.2,0L560.1,433.1"/>
<path class="st0" d="M324.9,610.1h116.6c0.2,1.2,0.4,2.2,0.5,3.3c0,37.3,0,74.6,0,111.9c0,0.7-0.1,1.3-0.2,2c0,0,0.2-0.2,0.2-0.2
	c-38.8,0-77.6,0-116.9,0c0-39.3,0-78.3,0-117.2L324.9,610.1"/>
<path class="st0" d="M560.1,727.1V610.5c1.2-0.2,2.2-0.5,3.3-0.5c37.3,0,74.6,0,111.9,0c0.7,0,1.3,0.1,2,0.2c0,0-0.2-0.2-0.2-0.2
	c0,38.8,0,77.6,0,116.9c-39.4,0-78.3,0-117.2,0L560.1,727.1"/>
</svg>
