<?xml version="1.0" encoding="utf-8"?>
<!-- Generator: Adobe Illustrator 22.0.0, SVG Export Plug-In . SVG Version: 6.00 Build 0)  -->
<svg version="1.1" id="Capa_1" xmlns="http://www.w3.org/2000/svg" xmlns:xlink="http://www.w3.org/1999/xlink" x="0px" y="0px"
	 viewBox="0 0 1000 1000" style="enable-background:new 0 0 1000 1000;" xml:space="preserve">
<style type="text/css">
	.st0{fill:#FFFFFF;}
</style>
<path class="st0" d="M514.6,50.7c249.2,1.2,449.6,200.6,449.3,450c-0.3,248.9-200.7,449-450.2,448.6
	C264.9,948.9,64.7,748.5,65.3,499C65.9,250.5,265.8,51.9,514.6,50.7 M514.6,932.6c235.9,0,426.3-187.4,432.5-420.1
	c6.5-246-187.5-438.9-420.5-444.7C280.8,61.6,88,255.3,82.1,488.3C75.8,736.8,275.4,933.1,514.6,932.6"/>
<path class="st0" d="M628,614.2v-114c1.7,0,3.1,0.1,4.6,0c2.1-0.2,3.1,0.4,3.6,2.8c3.7,16.9,9.2,33.1,18.5,47.8
	c14.2,22.3,33.4,38.4,59.2,45.5c16.5,4.5,33.1,4.5,48.8-3c14.5-7,24.4-18.3,26.6-34.9c1.8-13.3-2.9-24.6-11.3-34.6
	c-7.4-8.7-16.6-15.3-26.5-20.6c-18.4-9.9-37-19.3-55.4-29.2c-15.6-8.5-30.4-17.9-43-30.8c-45.3-46-26.9-119.7,34.4-141.1
	c27.9-9.7,55.5-7,82.4,5.1c7.7,3.5,15.5,6.8,23.6,9.4c7.9,2.5,13.4-0.7,16.3-8.5c1.4-3.7,2.3-7.6,3.5-11.5h6
	c0.8,33.6,1.6,67.1,2.5,100.8c-0.7,0.1-1.2,0.3-1.7,0.3c-6.8,0.2-6.7,0.2-8.2-6.4c-7.4-32.7-25.2-57.6-55.9-72
	c-17.9-8.4-36.9-9.7-55.4-1.5c-12.6,5.5-21.3,15.2-23.9,29.2c-2.2,11.8,1,22.2,9,31.2c9.4,10.7,21.2,18.2,33.8,24.7
	c18.2,9.5,36.6,18.6,54.6,28.4c16.6,9,32.4,19.3,45.2,33.5c11.8,13.1,18.5,28.4,20.7,46c6.2,49.7-29.3,85.8-64.6,97.5
	c-30.5,10.1-60.5,8-90.1-4.3c-6.1-2.5-12.3-5.1-18.6-6.9c-10.4-3-19.6,0.4-26.2,9.1c-0.9,1.2-2,2.4-2.4,3.7
	C636.4,615.1,632.6,615.2,628,614.2"/>
<path class="st0" d="M595.8,608.6v6.4H437.2v-7c3.9,0,7.7,0.4,11.4-0.1c5.4-0.7,11-1.3,16.1-3c8.8-3,13.3-9.9,14.1-19
	c0.7-7.4,1-14.9,1-22.4c0.1-68.5,0-136.9,0-205.4c0-5.7-0.3-11.5-0.8-17.2c-1.2-12-7.6-19.3-19.5-21.7c-5.1-1.1-10.5-1.1-15.8-1.4
	c-2-0.2-4.1,0-6.5,0v-7.1h158.4v6.7c-6.3,0.3-12.7,0.3-18.9,1.1c-9.4,1.1-17.5,4.9-21.1,14.3c-1.5,3.9-2,8.2-2.4,12.4
	c-0.5,5.1-0.5,10.3-0.5,15.5c0,68.1,0,136.3,0,204.4c0,6.6,0.2,13.1,0.9,19.6c1.2,12,7.8,19.6,19.8,21.9
	C580.6,607.9,588,608,595.8,608.6"/>
<path class="st0" d="M208.2,314h150.2v7.5c-5.9,0.3-11.9,0.4-17.8,1.1c-4.2,0.5-8.4,1.4-12.3,3c-7,2.8-9.8,8.4-7.5,16.4
	c2.5,8.8,5.8,17.4,9.4,25.8c22.4,52.6,45,105.2,67.5,157.8c0.6,1.4,0.9,3.5,0.3,4.7c-12.9,27.8-25.8,55.6-38.8,83.3
	c-0.2,0.4-0.4,0.8-0.9,1.7c-0.7-1.4-1.2-2.4-1.7-3.5c-35.5-82-70.9-164-106.4-246c-3.7-8.4-8.1-16.5-11.8-24.9
	c-4.8-11-13.4-16.4-24.9-18.3C206.9,321.6,206.8,321,208.2,314"/>
<path class="st0" d="M326.3,684.9h15v6c0,11.6,0,23.2,0,34.8c0,1.3,0,2.5,0.3,3.8c0.5,2.7,2.4,3.9,5,3.8c2.6,0,4.4-1.2,4.8-4
	c0.2-1.4,0.2-2.8,0.2-4.1c0-12.4,0.1-24.8-0.1-37.2c0-2.9,0.9-3.8,3.7-3.6c3.7,0.2,7.3,0.1,11.2,0.1v61.1h-13.7
	c-0.2-1.3-0.4-2.3-0.6-3.6c-0.8,0.6-1.5,1-2.2,1.6c-8.8,7-21.1,2.4-23.1-8.7c-0.2-1.2-0.5-2.5-0.5-3.7
	C326.3,715.8,326.3,700.5,326.3,684.9"/>
<path class="st0" d="M585.2,709.6c0-2.9,0.1-5.4,0-7.9c-0.1-2.5-1.1-4.4-3.9-4.8c-2.7-0.4-4.4,0.9-5.3,3.3c-0.2,0.6-0.4,1.3-0.6,2
	H561c-0.5-8.2,4.8-15,13.3-17.6c13.5-4.1,25.3,3.5,25.8,17.5c0.5,14.5,0.1,28.9,0.1,43.6h-13.7c-0.1-1.4-0.2-2.6-0.4-4
	c-0.5,0.1-0.9,0.1-1.1,0.3c-4.2,5-9.5,5.8-15.3,3.9c-5.9-1.9-9-6.3-9.8-12.2c-0.5-3.5-0.6-7.2,0.1-10.6c1.7-8.3,8.1-13,17.7-13.4
	C580.1,709.5,582.4,709.6,585.2,709.6 M585.2,720.1c-8.2-0.8-11.3,1.7-10.7,8c0.3,3.4,2.4,5.6,5.3,5.7c2.7,0,5-2.1,5.3-5.3
	C585.4,725.8,585.2,723,585.2,720.1"/>
<path class="st0" d="M483.2,702.5c-4.3,0-8.4,0.1-12.6-0.1c-0.8,0-1.7-1.2-2.1-2.1c-1.2-2.4-3.1-3.7-5.6-2.9c-1.6,0.5-3.4,2-4,3.5
	c-1,2.3,0.2,4.7,2.6,5.7c4.1,1.8,8.3,3.3,12.5,5c5.5,2.3,9.2,6.1,10,12.2c1.9,14.3-8.7,24.6-23,22.6c-9.1-1.3-14.9-6.3-16.9-14.4
	c-0.3-1.3-0.3-2.7-0.5-4.4c4.6,0,8.8-0.1,13,0.1c0.7,0,1.6,1,1.9,1.8c1.4,3,3.8,4.3,6.7,3.5c1.5-0.4,3.3-2.2,3.8-3.7
	c0.9-2.9-0.8-5.1-3.5-6.3c-2.8-1.2-5.8-2.3-8.6-3.3c-11.3-4.2-15.3-11.3-12.5-21.7c2.5-9.1,12.5-15.1,22.5-13.5
	C477.2,686,483.6,692.9,483.2,702.5"/>
<path class="st0" d="M701.8,732.7c0,3.7,0,7.1,0,10.5c0,0.7-0.1,1.4-0.1,2c-11.8,3-22.4-5.9-22.5-18.9c-0.1-18.2,0-36.3,0-54.5v-7
	h15v3.8c0,18.3,0,36.6,0,54.9C694.2,730,695.3,731.3,701.8,732.7"/>
</svg>
