<?xml version="1.0" encoding="utf-8"?>
<!-- Generator: Adobe Illustrator 22.0.0, SVG Export Plug-In . SVG Version: 6.00 Build 0)  -->
<svg version="1.1" id="Capa_1" xmlns="http://www.w3.org/2000/svg" xmlns:xlink="http://www.w3.org/1999/xlink" x="0px" y="0px"
	 viewBox="0 0 785.6 583.5" style="enable-background:new 0 0 785.6 583.5;" xml:space="preserve">
<style type="text/css">
	.st0{fill:#FFFFFF;}
</style>
<path class="st0" d="M0,114.3h140.9c-1.1,1.5-1.8,2.8-2.8,3.6c-4.4,3.5-4.7,7-2.6,12.5c39.8,104.1,79.4,208.2,119,312.4
	c0.5,1.3,1.1,2.7,1.9,4.8c13.9-19.9,27.5-39.1,41-58.4c0.3,0.1,0.6,0.3,0.9,0.4c-17.3,64.6-34.6,129.2-51.9,194.1h-49.2
	c-12.9,0-12.9,0-17.5-12.1c-55.7-148-111.5-296-167.3-444c-0.9-2.5-2.9-4.7-4.8-6.7C5.5,118.6,3,116.9,0,114.3"/>
<path class="st0" d="M549.8,102.2c-22.9,14.9-29.8,36.9-28.4,61.7c1.8,32.3,16.6,58.3,44.4,75.2c17.8,10.9,37,19.6,56.1,28.3
	c29.2,13.3,58.8,25.9,85.8,43.6c22.7,14.8,43,32,57.6,55.2c16.4,26.1,22.1,54.8,20,85.1c-4.8,72.5-57.6,112-109.3,125.1
	c-0.5,0.1-1,0-2.2,0c2.8-2.3,5.3-4.1,7.6-6.1c14.8-13.6,22.1-31,25.2-50.4c5.8-36.4-8.8-64.3-36.8-86.2
	c-18.2-14.3-39.3-23.7-60.2-33.1c-26.2-11.8-52.7-23.1-78.5-35.8c-20.9-10.3-39.3-24.3-54.6-42.3c-17.4-20.5-26.2-44.7-29.6-70.9
	c-5.4-41.9,5.1-79.3,33-111.3c17.2-19.6,38.7-32.3,64.5-37.2C546.2,102.6,548,102.4,549.8,102.2"/>
<path class="st0" d="M302.9,579.9c0.4-0.6,0.5-0.8,0.6-0.9c10.6-4.6,11.4-13.1,11.4-23.5c-0.3-141.6-0.3-283.2,0-424.9
	c0-7.4-1.9-12.4-8.1-16.1c-1.3-0.7-2.3-1.8-4.4-3.4h137.8c-3.7,2.6-6.4,4.7-9.2,6.5c-2.5,1.6-3.5,3.4-3.5,6.5
	c0.1,147.6,0.1,295.2,0.2,442.9c0,2,1.5,4.5,3,6c2.5,2.4,5.6,4.2,9.3,6.9H302.9z"/>
<path class="st0" d="M458.2,393.7c15.1,40.2,37.4,75.8,66.3,107.2c28.9,31.4,62.8,55.9,100.9,75.3c-4.8-1.1-9.6-2.1-14.4-3.1
	c-5-1.1-10.1-2.1-15.2-3.1c-26.6-5-53.2-8.9-80.3-8.4c-8.1,0.1-16.3,0.8-24.3,2.2c-12.1,2.1-23.5,5.9-31.2,18.5
	C459.4,518.4,458.8,456,458.2,393.7"/>
<path class="st0" d="M605.4,104.5c20.7,4.1,42,8.7,63.4,12.4c20.5,3.5,41.3,5.4,62.2,2.7c10.1-1.3,19.5-4,27-13.4v152.3
	C726,188.7,669.2,142.7,605.4,104.5"/>
<path class="st0" d="M372.6,31.8c3.3-6.1,8.4-9.1,14.8-10.1c11.9-2,20.7,4.3,21.5,16.3c0.8,11.4,0.5,23,0.5,34.5
	c0,1.2-1.3,2.3-2,3.5c-0.6-0.2-1.2-0.4-1.8-0.7c0-8.4,0-16.9,0-25.3c0-3.8,0.1-7.7-0.4-11.5c-0.9-7.9-4.6-12.1-11.2-13.5
	c-7.2-1.5-14.8,1.3-18,7.7c-2,4-3.1,8.8-3.3,13.3c-0.5,9.6-0.1,19.3-0.1,28.8c-3.7,1.4-3.8-0.6-3.8-3c0-11.5,0-23,0-34.5
	c0-10.3-0.1-20.7,0.1-31c0-1.4,1.2-2.9,1.9-4.3c0.6,0.2,1.2,0.4,1.8,0.6V31.8z"/>
<path class="st0" d="M134.9,37.8c-0.1-8,3.9-12.7,10.3-14.9c7.1-2.5,14.2-2.4,20.4,2.4c4.4,3.4,5,8.5,5,13.6c0,12,0,23.9,0,36.3
	c-0.4,0-1.5,0.2-2.7,0.3c-0.3-3.3-0.6-6.4-1-10.7c-5.6,10.4-13.8,13.1-23.8,11.1c-6.7-1.3-10.4-5.1-11.2-11.1
	c-0.9-6.2,1.5-11.1,6.7-14.5c6.8-4.4,14.6-5.3,22.5-5.8c1.6-0.1,3.3,0,4.9,0c2.7-9.3-0.1-16.7-6.9-18.9c-9.1-3-17.2,0.7-20.8,9.3
	C137.6,36,136,36.8,134.9,37.8 M167.4,46.9c-6.8,0.7-12.3,0.7-17.5,2.1c-4,1.1-8.2,3.1-11.2,6c-5.5,5.3-3.1,14.6,3.9,17.2
	c9.2,3.5,19.8-1.2,22.8-10.6C166.7,57.5,166.6,52.9,167.4,46.9"/>
<path class="st0" d="M627.9,49.1c-0.4,19.4-14.8,31.2-32.5,26.4c-6.4-1.8-11.3-5.5-14.3-11.6c-4.4-8.8-4.7-18-1.3-27.1
	c3.9-10.4,13.1-15.9,24.4-15.3c10.9,0.6,19.2,7.2,22,17.8C627.1,42.5,627.4,45.8,627.9,49.1 M624.7,48.4c-1.8-5.1-2.8-10.7-5.6-15.1
	c-7.1-11.4-24.2-11.6-32.5-0.9c-6.7,8.7-6.5,25.3,0.5,33.7c5.4,6.5,14.3,8.8,22.6,5.9C618.5,68.9,623.6,60.3,624.7,48.4"/>
<path class="st0" d="M709.9,75.9c-0.7-1.1-2.1-2.3-2.1-3.4c-0.1-15.7-0.1-31.3,0-47c0-1.2,1.2-2.4,1.9-3.5c0.5,0.2,1.1,0.4,1.6,0.6
	v8.5c3.3-2.7,6.3-6.3,10.1-7.8c4-1.5,8.8-1.8,13.1-1.2c7.6,1,12.5,6.1,12.9,13.7c0.7,12.3,0.7,24.6,0.7,36.9c0,1-1.5,2-2.3,3.1
	c-0.5-0.3-0.9-0.6-1.4-0.8c0-9.1,0-18.3,0-27.4c0-2.8,0-5.7-0.3-8.5c-0.9-8.7-5.1-13.4-12.6-14.4c-7.9-1-15.3,3-18,10.4
	c-1.3,3.5-1.9,7.4-2,11.2c-0.3,9.5-0.1,19-0.1,28.4C711,75.2,710.5,75.5,709.9,75.9"/>
<path class="st0" d="M252.3,59.1c0.9,1.1,2.1,2.1,2.6,3.3c3.9,9.9,14.9,13.9,24.2,8.8c3.4-1.9,6.2-4.9,5.3-8.8
	c-0.7-3.1-2.7-6.7-5.2-8.3c-3.8-2.4-8.6-3.3-13.1-4.6c-10.5-3.2-15-8.8-13.2-16.7c1.8-8,10.4-12.8,20.1-11.2
	c8.3,1.4,13.1,6.4,13.4,15.9c-1.1-1.2-2.6-2.2-3.2-3.6c-3.8-8.2-12.2-11.6-20.3-8c-4,1.8-6.3,4.7-6.5,9.2c-0.2,4.7,2.3,7.7,6.3,9.2
	c5.3,2,10.9,3.1,16.1,5.2c8,3.1,11.3,9.9,8.7,17.1c-0.6,1.7-1.5,3.5-2.8,4.6c-6.4,5.8-14.1,6.3-22,4c-7.4-2.1-11-7.6-12-14.9
	C251.3,60,251.8,59.6,252.3,59.1"/>
<path class="st0" d="M56.3,3C45.1,4.6,43.3,6,44.9,22.6c2.9,2.1,7.7-1.5,10.9,3.7H44.4c0,10.5,0,20.4,0,30.3
	c0,5.2,0.1,10.3-0.1,15.5c-0.1,1.2-1.4,2.4-2.1,3.6l-1.6-0.7V26.8c-2.2-0.3-3.9-0.5-5.6-0.8c-0.1-0.5-0.3-1-0.4-1.5
	c1.8-0.6,3.6-1.2,6.3-2.2c0-3.7-0.3-8,0.1-12.3C41.5,3.2,46.7-1,52.6,0.2C54,0.5,55.1,2,56.3,3"/>
<path class="st0" d="M497.4,23v51.8c-0.4,0.3-0.7,0.6-1.1,0.9c-0.9-1-2.5-1.9-2.5-2.9c-0.2-16-0.2-32,0-48c0-1,1.5-2,2.3-3
	C496.6,22.3,497,22.7,497.4,23"/>
<path class="st0" d="M499.7,11.3c-1.9,1.4-3,2.9-4,2.8c-1-0.1-2.3-1.6-2.6-2.7c-0.2-0.6,1.5-2.4,2.3-2.4
	C496.6,8.9,497.7,10.1,499.7,11.3"/>
</svg>
