<?xml version="1.0" encoding="utf-8"?>
<!-- Generator: Adobe Illustrator 22.0.0, SVG Export Plug-In . SVG Version: 6.00 Build 0)  -->
<svg version="1.1" id="Capa_1" xmlns="http://www.w3.org/2000/svg" xmlns:xlink="http://www.w3.org/1999/xlink" x="0px" y="0px"
	 viewBox="0 0 785.6 481.3" style="enable-background:new 0 0 785.6 481.3;" xml:space="preserve">
<path d="M0,12.1h140.9c-1.1,1.5-1.8,2.8-2.8,3.6c-4.4,3.5-4.7,7-2.6,12.5c39.8,104.1,79.4,208.2,119,312.4c0.5,1.3,1.1,2.7,1.9,4.8
	c13.9-19.9,27.5-39.1,41-58.4c0.3,0.1,0.6,0.3,0.9,0.4c-17.3,64.6-34.6,129.2-51.9,194.1h-49.2c-12.9,0-12.9,0-17.5-12.1
	c-55.7-148-111.5-296-167.3-444c-0.9-2.5-2.9-4.7-4.8-6.7C5.5,16.4,3,14.7,0,12.1"/>
<path d="M549.8,0c-22.9,14.9-29.8,36.9-28.4,61.7c1.8,32.3,16.6,58.3,44.4,75.2c17.8,10.9,37,19.6,56.1,28.3
	c29.2,13.3,58.8,25.9,85.8,43.6c22.7,14.8,43,32,57.6,55.2c16.4,26.1,22.1,54.8,20,85.1c-4.8,72.5-57.6,112-109.3,125.1
	c-0.5,0.1-1,0-2.2,0c2.8-2.3,5.3-4.1,7.6-6.1c14.8-13.6,22.1-31,25.2-50.4c5.8-36.4-8.8-64.3-36.8-86.2
	c-18.2-14.3-39.3-23.7-60.2-33.1c-26.2-11.8-52.7-23.1-78.5-35.8c-20.9-10.3-39.3-24.3-54.6-42.3c-17.4-20.5-26.2-44.7-29.6-70.9
	c-5.4-41.9,5.1-79.3,33-111.3c17.2-19.6,38.7-32.3,64.5-37.2C546.2,0.4,548,0.2,549.8,0"/>
<path d="M302.9,477.7c0.4-0.6,0.5-0.8,0.6-0.9c10.6-4.6,11.4-13.1,11.4-23.5c-0.3-141.6-0.3-283.2,0-424.9c0-7.4-1.9-12.4-8.1-16.1
	c-1.3-0.7-2.3-1.8-4.4-3.4h137.8c-3.7,2.6-6.4,4.7-9.2,6.5c-2.5,1.6-3.5,3.4-3.5,6.5c0.1,147.6,0.1,295.2,0.2,442.9c0,2,1.5,4.5,3,6
	c2.5,2.4,5.6,4.2,9.3,6.9H302.9z"/>
<path d="M458.2,291.5c15.1,40.2,37.4,75.8,66.3,107.2c28.9,31.4,62.8,55.9,100.9,75.3c-4.8-1.1-9.6-2.1-14.4-3.1
	c-5-1.1-10.1-2.1-15.2-3.1c-26.6-5-53.2-8.9-80.3-8.4c-8.1,0.1-16.3,0.8-24.3,2.2c-12.1,2.1-23.5,5.9-31.2,18.5
	C459.4,416.2,458.8,353.8,458.2,291.5"/>
<path d="M605.4,2.3c20.7,4.1,42,8.7,63.4,12.4c20.5,3.5,41.3,5.4,62.2,2.7c10.1-1.3,19.5-4,27-13.4v152.3
	C726,86.5,669.2,40.5,605.4,2.3"/>
</svg>
