<?xml version="1.0" encoding="utf-8"?>
<!-- Generator: Adobe Illustrator 22.0.0, SVG Export Plug-In . SVG Version: 6.00 Build 0)  -->
<svg version="1.1" id="Capa_1" xmlns="http://www.w3.org/2000/svg" xmlns:xlink="http://www.w3.org/1999/xlink" x="0px" y="0px"
	 viewBox="0 0 1820.8 1094.7" style="enable-background:new 0 0 1820.8 1094.7;" xml:space="preserve">
<style type="text/css">
	.st0{fill:#FFFFFF;}
</style>
<path class="st0" d="M28.2,219.4h114.5c25,68.9,50.1,138,75.3,207.1c0.6,0,1.2-0.2,1.7-0.2v-7.9c0-36.1-0.2-72,0-108.1
	c0.3-32.5,13.7-58.3,40.8-76.9c14.2-9.6,30-14,46.8-14c83.2-0.3,166.5-0.2,249.7-0.2c0.8,0,1.6,0.2,3.4,0.3
	c-11.5,31.4-23,62.4-34.9,94.3c-9,0-18,0.3-26.9-0.2c-5.4-0.3-7.5,1.9-9.3,6.7c-9.3,26.6-19.3,52.9-28.6,79.5
	c-1.9,5.3-4.2,7.6-10.3,7.6c-31.1-0.3-62.2-0.2-94.4-0.2c10.9-31.4,21.5-61.9,32.4-93.4c-15.6,0-30.2-0.5-44.5,0.2
	c-11.4,0.5-21.6,12.1-21.6,23.6c-0.2,19.4-0.2,38.9,0,58.3c0,14.3,11,25.2,25.8,25.2c60.7,0.5,121.4,1.7,182,1.1
	c39.4-0.3,80.4,29.6,87.6,74.2c0.8,4.8,0.5,9.8,0.6,14.8c0,50.6,0.2,101.1-0.2,151.7c-0.3,44.2-33.6,80.4-77.8,85.1
	c-7.2,0.8-14.5,1.2-21.6,1.2c-94.1,0-188.3,0-282.4,0.2c-4.8,0-7.8-0.6-9.8-6.1C161.2,570.2,95.6,397,29.9,223.9
	C29.3,222.6,29,221.5,28.2,219.4 M283.8,608.3c0.6,0,1.2,0,1.9-0.2c0.9-2.3,1.9-4.5,2.6-6.8c6.2-17.6,12.6-35,18.4-52.6
	c1.9-5.4,4.2-7.6,10.3-7.6c24.4,0.5,48.7,0.2,73.1,0.2h19.3c-13.8,38.3-27.2,75.3-41.1,113.4h8.4c37.7,0,75.1,0,112.8,0
	c15.7,0,26.9-10.1,27.2-25.7c0.5-25.2,0.5-50.3,0-75.5c-0.3-16.2-11.8-26.8-28-26.8c-57.6,0-115.1-0.3-172.5,0.2
	c-25.2,0.2-48.2-5-67.4-22.4c-0.5-0.3-1.2-0.3-2.5-0.5C258.8,539.4,271.2,573.9,283.8,608.3"/>
<path class="st0" d="M1190,578.1c12.1-19.9,23.8-39.2,35.5-58.3c7.5-12.1,14.6-24.4,22.4-36.4c1.2-2,4-4.2,6.2-4.4
	c10.3-0.5,20.7-0.2,31.6-0.2v211.1h-40.3v-134c-2.6,3.4-3.9,4.7-4.8,6.2c-12,19.4-23.8,38.9-35.6,58.3c-9.3,15.2-23,15.2-32.8,0
	c-13.7-21.3-27.4-42.6-42.5-66v135h-41.1V478.9c12,0,24.1-0.3,36.1,0.3c2,0.2,4.4,3.3,5.8,5.4c18.2,28.6,36.4,57.3,54.6,85.9
	C1186.5,572.9,1188,575.2,1190,578.1"/>
<path class="st0" d="M1515.1,603.3v86.5h-40.6V479.2c2.5-0.2,5-0.3,7.5-0.3c38.9,0,77.8,0,116.7,0c23.8,0,38.1,14.3,38.3,38.3
	c0.2,15.2,0,30.7,0,45.9c0,24.9-11.5,38-37.7,40.9c8.7,14.5,17,28.6,25.4,42.6c8.4,14.2,16.8,28.3,26.1,43.9
	c-14.9,0-28.5,0.2-42-0.3c-2,0-4.4-3.1-5.8-5.4c-15.4-25.2-30.7-50.6-45.6-75.9c-2.3-4-5-5.8-9.8-5.6
	C1537,603.7,1526.4,603.3,1515.1,603.3 M1515.4,566c23.3,0,45.9,0.2,68.5,0c7.2,0,10.7-4.5,10.9-11.5c0.2-8.6,0.3-17.1,0-25.7
	c-0.3-8.9-4.2-12.3-13.2-12.4c-9.6-0.2-19.1,0-28.8,0h-37.3L1515.4,566L1515.4,566z"/>
<path class="st0" d="M834.2,603.3h-49.3v-36.7h90.6c0.2,0.3,0.8,0.6,0.8,1.1c0.2,30,0.6,60.2,0,90.2c-0.5,18.2-16,32.4-34.4,32.5
	c-31.4,0.2-62.7,0.2-94.1-0.2c-3.4,0-7.8-1.7-10.3-4c-11.5-10.9-22.7-21.9-33.6-33.5c-2.5-2.6-4.4-7.2-4.4-10.9
	c-0.3-42.8-0.3-85.6-0.2-128.4c0.2-17.9,14.3-34.1,31.7-34.2c45.6-0.6,91.2-0.2,137.4-0.2v37.3h-8.2c-34.7,0-69.5,0-104.2,0
	c-11.4,0-14.8,3.4-14.8,14.8c0,30.7,0.2,61.1-0.2,91.8c0,6.5,2.6,10.9,6.5,15.9c9.2,11.7,20.1,16.3,35,14.8
	c13.1-1.2,26.4-0.2,39.7-0.3c7.6-0.2,12-3.9,12.1-11.2C834.5,629.5,834.2,617,834.2,603.3"/>
<path class="st0" d="M1812.9,478.9v37.3h-8.4c-29.3,0-58.5,0-87.9,0c-11.5,0-14.9,3.3-14.9,14.6c0,5-0.2,9.8,0,14.8
	c0.2,10.4,3.7,14,14.2,14c22.1,0.2,44,0.2,66.1,0.2c24,0,38.6,14.8,38.7,38.9c0,17.9,0.2,35.8,0,53.7c-0.2,23.8-14.6,38.1-38.4,38.1
	c-38.9,0-77.8,0-117.2,0v-37.3h8.4c30.3,0,60.7,0,91,0c11.7,0,14.8-3.1,14.9-14.6c0-8.1,0.2-16,0-24.1c-0.2-9-3.9-12.6-12.9-12.6
	c-22.9,0-45.6,0-68.5,0c-22.6,0-36.9-14.5-37-36.9c0-16.6-0.2-33.1,0-49.8c0.2-21.3,14.9-36.3,36.3-36.3
	C1735.2,478.9,1773.6,478.9,1812.9,478.9"/>
<polygon class="st0" points="1437.9,565.9 1437.9,603.3 1352.8,603.3 1352.8,652.8 1458.9,652.8 1458.9,690 1311.1,690 
	1311.1,479.3 1459,479.3 1459,515.9 1352.9,515.9 1352.9,565.9 "/>
<path class="st0" d="M1081.3,690.3h-45.4c-4.2-11.8-8.9-23.8-12.8-36.1c-1.4-4.5-3.7-5.8-8.2-5.8c-23,0.2-46.2,0.3-69.2,0
	c-4.7,0-6.8,1.6-8.2,5.9c-3.9,12-8.4,24-12.6,35.9h-41.4c0.8-2.3,1.2-4.5,2-6.5c24.6-66.3,49.3-132.4,73.7-198.7
	c1.7-4.5,3.7-6.4,8.9-6.2c10.1,0.5,20.2-0.2,30.3,0.3c2.3,0.2,5.9,2.2,6.7,4.2c25.5,67.8,50.7,135.8,75.9,203.7
	C1081,688,1081,688.9,1081.3,690.3 M979.8,534.6c-9.8,27.9-18.8,53.4-28,79.2h56.5C998.8,587.6,989.6,562.1,979.8,534.6"/>
<path class="st0" d="M1006.1,278.5h12v8.2c0,34.2,0,68.5,0,102.7c0,24.7,12,36.6,36.7,36.7c7.8,0,15.6,0.2,23.3,0
	c20.5-0.3,33.1-12.8,33.3-33.9c0.2-35,0-70,0-105v-8.6h11c0.5,0.6,0.8,0.8,0.8,0.9c0,39.4,1.2,78.7-0.5,118.1
	c-1.1,25.4-18.5,39.2-44.2,39.2c-9.3,0-18.7,0-28,0c-25.8,0-43.4-14.9-44.2-40.9C1005.2,357.1,1006.1,318.2,1006.1,278.5"/>
<path class="st0" d="M1276.2,436.1c-8.9,2.5-13.7,0-16.5-8.9c-4.2-12.8-10-25-14.8-37.5c-1.6-4.2-3.7-5.9-8.4-5.9
	c-19.4,0.3-38.9,0.3-58.3,0c-4.5,0-6.4,1.6-7.8,5.4c-4.8,12.8-10.7,25.2-15.1,38.3c-2.8,8.4-7.2,11.2-15.9,8.4
	c0.8-2.2,1.7-4.5,2.6-6.8c19.9-48.1,39.8-96.2,59.9-144.1c1.1-2.8,4.4-4.7,6.7-7c2.2,2.3,5.4,4.2,6.5,7
	c19.6,47.9,38.9,96,58.2,143.9C1274.5,431.4,1275.5,433.9,1276.2,436.1 M1238.4,372.9c-10.1-25.4-19.9-49.6-30.5-75.9
	c-10.7,26.6-20.5,50.9-30.8,75.9H1238.4z"/>
<path class="st0" d="M880,436.7V426h8.1c22.6,0,45.1,0,67.7,0c12.8,0,18.7-5.9,18.7-18.5c0-9.8,0-19.8,0-29.6
	c-0.2-12.8-6.1-18.7-18.5-18.7c-15.2,0-30.7,0-45.9,0c-17.6-0.2-28-10.6-28.3-28.2c-0.2-8.6-0.3-17.1,0-25.7
	c0.5-16.5,11.2-27.1,27.7-27.1c21.5-0.2,42.9,0,64.7,0v10.9h-17.5c-15.2,0-30.7,0-45.9,0c-11.8,0-17.6,5.9-17.7,17.7
	c-0.2,8.1-0.2,16,0,24.1c0.2,11.4,6.1,17.1,17.4,17.3c15.6,0.2,31.1,0,46.7,0c17.4,0,28,10.6,28.3,28c0.2,12,0.3,23.8-0.2,35.8
	c-0.3,12.6-10.4,24.1-22.9,24.4C935.2,437.2,907.8,436.7,880,436.7"/>
<path class="st0" d="M693.1,279.1c10-3.3,13.8,1.1,17,9.5c15.7,41.5,32.2,82.9,48.4,124.3c0.9,2.3,2,4.7,3.6,8.1
	c11-27.7,21.5-54,31.9-80.4c7.2-18,14.8-35.9,21.2-54.1c2.8-8.2,7.3-9.3,15.1-7.6c-9.8,24.6-19.4,48.7-29.3,73
	c-10.6,26.6-21.3,53.2-31.9,80c-1.6,4-3.7,5.3-7.9,5.3c-4,0-5.8-1.6-7.3-5.1c-19.8-49.8-39.7-99.4-59.4-149.2
	C693.9,281.6,693.4,280.3,693.1,279.1"/>
<path class="st0" d="M203.9,326.2c-12.9-35.5-25.7-70.9-38.7-106.9H254c-38.3,26.6-52.6,62.7-47.9,106.9
	C205.3,326.2,204.6,326.2,203.9,326.2"/>
<polygon class="st0" points="1306.9,425.8 1384.5,425.8 1384.5,436.4 1295.5,436.4 1295.5,278.6 1306.9,278.6 "/>
<rect x="847.4" y="278.6" class="st0" width="11" height="157.9"/>
</svg>
