<?xml version="1.0" encoding="utf-8"?>
<!-- Generator: Adobe Illustrator 22.0.0, SVG Export Plug-In . SVG Version: 6.00 Build 0)  -->
<svg version="1.1" id="Capa_1" xmlns="http://www.w3.org/2000/svg" xmlns:xlink="http://www.w3.org/1999/xlink" x="0px" y="0px"
	 viewBox="0 0 738 663.7" style="enable-background:new 0 0 738 663.7;" xml:space="preserve">
<style type="text/css">
	.st0{fill:#FFFFFF;}
	.st1{fill:#76FF03;}
</style>
<path class="st0" d="M0,0.7h143.1c31.3,86,62.7,172.5,94,258.7c0.8,0,1.6,0,2.3,0v-8.6c0-43.2,0.2-86.2,0-129.4
	c-0.2-30.4,6.2-58.2,26.7-81.9c21.8-25.3,49.2-38.9,82.3-39.1c104.1-0.6,208.3-0.2,312.4-0.2c1.4,0,2.5,0.2,4.9,0.4
	c-14.6,39.5-29,78.4-43.6,118c-11.9,0-23.4,0.4-35-0.2c-5.5-0.2-7.8,1.8-9.5,7c-12.1,33.9-24.5,67.3-36.6,101.2
	c-2.5,7-5.8,9.1-13.2,9.1c-36-0.4-72-0.4-108-0.4c-2.9,0-5.6,0-9.7,0c13.6-39.1,26.9-77.1,40.5-116.4c-20.2,0-39.1-1.2-58,0.4
	c-14,1.2-24.7,16-24.9,30.6c0,23.7,0,47.3,0,71c0,18.3,13.6,32.1,31.7,32.1c76.9,0.6,153.8,1.4,230.7,1.8
	c58.2,0.4,107.4,48.5,107.8,106.5c0.4,65.2,0.4,130.4,0,195.6c-0.4,53.9-43,99.9-96.7,105.1c-9.9,1-20,1.6-30,1.6
	c-116.8,0.2-233.6,0-350.4,0.2c-6.4,0-10.3-1-13-8C166,439.6,84.1,223.4,2.3,7.3C1.4,5.6,0.8,3.4,0,0.7 M424.9,545.3h10.7
	c47.1,0,94,0,141.1,0c19.9,0,33.7-13.2,33.9-33.3c0.4-30.8,0.4-61.7,0-92.5c-0.2-22.4-19.1-34.8-35.2-34.6
	c-75.5,0.8-151,0.4-226.6,0.2c-8.4,0-16.7-1.6-24.9-2.9c-19.3-3.5-35.6-13-51.4-24.9c15.8,43.4,31.3,86.6,47.1,130
	c3.5-3.1,4.7-6,5.6-9c7.8-22.2,15.8-44.4,23.2-66.8c2.1-6.2,5.1-8.4,11.7-8.4c36,0.4,72,0.2,108,0.2c2.3,0,4.9,0.2,8.2,0.4
	C459.2,451.1,442.2,497.5,424.9,545.3"/>
<path class="st1" d="M171.3,0.7h110.9C234.4,34,216.4,78.8,222.5,134c-1,0-1.8,0.2-2.7,0.2C203.6,89.9,187.4,45.5,171.3,0.7"/>
</svg>
