<?xml version="1.0" encoding="utf-8"?>
<!-- Generator: Adobe Illustrator 22.0.0, SVG Export Plug-In . SVG Version: 6.00 Build 0)  -->
<svg version="1.1" id="Capa_1" xmlns="http://www.w3.org/2000/svg" xmlns:xlink="http://www.w3.org/1999/xlink" x="0px" y="0px"
	 viewBox="0 0 379.1 341" style="enable-background:new 0 0 379.1 341;" xml:space="preserve">
<style type="text/css">
	.st0{fill:#FFFFFF;}
</style>
<path class="st0" d="M0,0.4h73.5c16.1,44.2,32.2,88.6,48.3,132.9c0.4,0,0.8,0,1.2,0v-4.4c0-22.2,0.1-44.3,0-66.5
	c-0.1-15.6,3.2-29.9,13.7-42.1c11.2-13,25.3-20,42.3-20.1c53.5-0.3,107-0.1,160.5-0.1c0.7,0,1.3,0.1,2.5,0.2
	c-7.5,20.3-14.9,40.3-22.4,60.6c-6.1,0-12,0.2-18-0.1c-2.8-0.1-4,0.9-4.9,3.6c-6.2,17.4-12.6,34.6-18.8,52c-1.3,3.6-3,4.7-6.8,4.7
	c-18.5-0.2-37-0.2-55.5-0.2c-1.5,0-2.9,0-5,0c7-20.1,13.8-39.6,20.8-59.8c-10.4,0-20.1-0.6-29.8,0.2c-7.2,0.6-12.7,8.2-12.8,15.7
	c0,12.2,0,24.3,0,36.5c0,9.4,7,16.5,16.3,16.5c39.5,0.3,79,0.7,118.5,0.9c29.9,0.2,55.2,24.9,55.4,54.7c0.2,33.5,0.2,67,0,100.5
	c-0.2,27.7-22.1,51.3-49.7,54c-5.1,0.5-10.3,0.8-15.4,0.8c-60,0.1-120,0-180,0.1c-3.3,0-5.3-0.5-6.7-4.1
	c-41.9-111-84-222.1-126-333.1C0.7,2.9,0.4,1.8,0,0.4 M218.3,280.2h5.5c24.2,0,48.3,0,72.5,0c10.2,0,17.3-6.8,17.4-17.1
	c0.2-15.8,0.2-31.7,0-47.5c-0.1-11.5-9.8-17.9-18.1-17.8c-38.8,0.4-77.6,0.2-116.4,0.1c-4.3,0-8.6-0.8-12.8-1.5
	c-9.9-1.8-18.3-6.7-26.4-12.8c8.1,22.3,16.1,44.5,24.2,66.8c1.8-1.6,2.4-3.1,2.9-4.6c4-11.4,8.1-22.8,11.9-34.3
	c1.1-3.2,2.6-4.3,6-4.3c18.5,0.2,37,0.1,55.5,0.1c1.2,0,2.5,0.1,4.2,0.2C235.9,231.8,227.2,255.6,218.3,280.2"/>
<path class="st0" d="M88,0.4h57c-24.6,17.1-33.8,40.1-30.7,68.5c-0.5,0-0.9,0.1-1.4,0.1C104.6,46.2,96.3,23.4,88,0.4"/>
</svg>
