<?xml version="1.0" encoding="UTF-8" standalone="no"?>
<!-- Generator: Adobe Illustrator 22.0.0, SVG Export Plug-In . SVG Version: 6.00 Build 0)  -->

<svg
   xmlns:dc="http://purl.org/dc/elements/1.1/"
   xmlns:cc="http://creativecommons.org/ns#"
   xmlns:rdf="http://www.w3.org/1999/02/22-rdf-syntax-ns#"
   xmlns:svg="http://www.w3.org/2000/svg"
   xmlns="http://www.w3.org/2000/svg"
   xmlns:sodipodi="http://sodipodi.sourceforge.net/DTD/sodipodi-0.dtd"
   xmlns:inkscape="http://www.inkscape.org/namespaces/inkscape"
   version="1.1"
   id="Capa_1"
   x="0px"
   y="0px"
   viewBox="0 0 458.18909 231.35294"
   xml:space="preserve"
   sodipodi:docname="VISMagazineLightGold.svg"
   width="458.18909"
   height="231.35294"
   inkscape:version="0.92.4 (5da689c313, 2019-01-14)"><metadata
   id="metadata224"><rdf:RDF><cc:Work
       rdf:about=""><dc:format>image/svg+xml</dc:format><dc:type
         rdf:resource="http://purl.org/dc/dcmitype/StillImage" /><dc:title></dc:title></cc:Work></rdf:RDF></metadata><defs
   id="defs222" /><sodipodi:namedview
   pagecolor="#ffffff"
   bordercolor="#666666"
   borderopacity="1"
   objecttolerance="10"
   gridtolerance="10"
   guidetolerance="10"
   inkscape:pageopacity="0"
   inkscape:pageshadow="2"
   inkscape:window-width="1920"
   inkscape:window-height="1001"
   id="namedview220"
   showgrid="false"
   fit-margin-top="0"
   fit-margin-left="0"
   fit-margin-right="0"
   fit-margin-bottom="0"
   inkscape:zoom="2.2676136"
   inkscape:cx="276.39353"
   inkscape:cy="164.06919"
   inkscape:window-x="-9"
   inkscape:window-y="-9"
   inkscape:window-maximized="1"
   inkscape:current-layer="Capa_1" />
<style
   type="text/css"
   id="style211">
	.st0{fill:#FFFFFF;}
</style>
<path
   class="st0"
   d="m 442.79419,0.55293507 c 0.6,24.29999993 1.2,48.49999993 1.8,72.89999993 h -6 c -1.4,-5.1 -2.5,-10.1 -4.2,-14.9 -7.8,-21.2 -21.8,-36.7 -43.4,-44 -12.6,-4.3 -25.4,-4.1 -37.4,2.8 -11.8,6.8 -17.2,19.9 -13.4,32.2 2.2,7.2 7.5,12.2 13.1,16.9 7.8,6.5 17,10.7 25.8,15.4 14.2,7.7 28.5,15 42.4,23.100005 10.1,5.9 19.2,13.3 25.9,23.1 8.6,12.5 12.2,26.4 10.3,41.4 -3.5,28.8 -20.7,46.9 -47.1,56.4 -21.4,7.7 -43,5.9 -64,-2.7 -4.8,-1.9 -9.5,-3.9 -14.4,-5.4 -7.6,-2.2 -14.2,0.2 -18.9,6.5 -0.6,0.9 -1.4,1.7 -1.8,2.7 -1.2,3.8 -3.8,4 -7.2,3.2 v -82.5 c 1.2,0 2.4,0.1 3.5,0 1.4,-0.1 2,0.3 2.3,1.8 2.3,10.8 5.7,21.1 11,30.8 9.5,17.2 23.2,29.7 42,36 12.8,4.3 25.9,4.7 38.4,-1.2 10.7,-5 17.8,-13.3 19.5,-25.3 1.3,-9.6 -2.1,-17.8 -8.2,-25 -6.2,-7.4 -14.3,-12.4 -22.7,-16.9 -13.5,-7.2 -27.1,-14.1 -40.5,-21.4 -10.3,-5.6 -19.8,-12.2 -27.9,-20.8 -32.3,-33.700005 -18.1,-87.300005 27.1,-101.9000049 21,-6.8 41.5,-4.00000003 61.2,5.5 4.5,2.0999999 9.1,3.9999999 13.8,5.3999999 6.1,1.8 9.8,-0.5 12.1,-6.3999999 0.6,-1.5 1,-3.1 1.4,-4.7 1.1,-3.60000003 1.1,-3.60000003 5.5,-3.00000003"
   id="path213"
   style="fill:#ffe082;fill-opacity:1"
   inkscape:connector-curvature="0" />
<path
   class="st0"
   d="m 280.99419,226.25294 c 0,0.5 0.1,1.1 0.1,1.8 0,0.9 0,1.8 0,2.9 h -114.9 v -5.1 c 2.8,0 5.6,0.3 8.3,-0.1 4,-0.5 8.1,-1 11.9,-2.3 6.2,-2.1 9.3,-7.1 9.9,-13.4 0.5,-5.5 0.8,-11 0.8,-16.5 0,-49.7 0,-99.300005 0,-149.000005 0,-5.1 -0.6,-10.3 -1,-15.4 -0.3,-3.3 -2.2,-5.9 -4.6,-8 -4.8,-4.2 -10.6,-5.4 -16.7,-5.6 -2.8,-0.1 -5.6,0 -8.5,0 v -5.1 h 114.7 v 4.9 c -4.6,0.2 -9.2,0.2 -13.7,0.8 -6.8,0.8 -12.6,3.6 -15.3,10.4 -1.1,2.9 -1.5,6.1 -1.7,9.2 -0.3,4.4 -0.3,8.8 -0.3,13.2 0,48.5 0,97.000005 0,145.500005 0,4.8 0.2,9.7 0.6,14.5 0.8,8.7 5.7,14.2 14.3,15.9 5.1,0.8 10.5,0.9 16.1,1.4"
   id="path215"
   style="fill:#ffe082;fill-opacity:1"
   inkscape:connector-curvature="0" />
<path
   class="st0"
   d="M 0.39419441,12.952935 H 109.19419 v 5.8 c -3.3,0 -6.6,-0.2 -9.799996,0.1 -3.4,0.3 -6.8,0.8 -10,1.7 -6.5,1.9 -9.1,6.1 -7.3,12.6 1.7,6.3 4.1,12.4 6.7,18.5 16.199996,38.1 32.599996,76.200005 48.899996,114.300005 0.7,1.7 0.7,3 -0.1,4.7 -8.9,18.9 -17.7,37.8 -26.5,56.7 -0.6,1.2 -1.2,2.4 -2,4 -2.2,-5.1 -4.2,-9.8 -6.2,-14.4 -23.899996,-55.3 -47.699996,-110.6 -71.699996,-165.800005 -2.7,-6.3 -6,-12.2 -8.8,-18.5 -3.5,-7.9 -9.6,-12 -17.8999996,-13.3 -4.89999999,-1 -4.89999999,-1.2 -4.09999999,-6.4"
   id="path217"
   style="fill:#ffe082;fill-opacity:1"
   inkscape:connector-curvature="0" />
</svg>